<svg width="220" height="44" viewBox="0 0 220 44" fill="none" xmlns="http://www.w3.org/2000/svg">
  <defs>
    <linearGradient id="mct" x1="0" y1="0" x2="220" y2="44" gradientUnits="userSpaceOnUse">
      <stop offset="0" stop-color="#7C3AED"/>
      <stop offset="1" stop-color="#06B6D4"/>
    </linearGradient>
  </defs>
  <!-- Magiccraft wordmark (simple geometric lettering) -->
  <g fill="url(#mct)">
    <path d="M8 34V10h6l6 10 6-10h6v24h-6V22l-6 10-6-10v12H8Z"/>
    <path d="M48 34c-6 0-10-4.2-10-11s4-11 10-11 10 4.2 10 11-4 11-10 11Zm0-6c2.6 0 4-2.2 4-5s-1.4-5-4-5-4 2.2-4 5 1.4 5 4 5Z"/>
    <path d="M74 34c-5.6 0-9-3.8-9-9.5V12h6v12.2c0 2.7 1.4 4.3 3.7 4.3 2.3 0 3.7-1.6 3.7-4.3V12h6v12.5c0 5.7-3.4 9.5-9.4 9.5Z"/>
    <path d="M92 34V12h6v3.6c1.5-2.2 3.8-3.6 7-3.6 5.7 0 10 4.2 10 11s-4.3 11-10 11c-3.2 0-5.5-1.4-7-3.6V34h-6Zm12.4-6c2.8 0 4.6-2.2 4.6-5s-1.8-5-4.6-5-4.6 2.2-4.6 5 1.8 5 4.6 5Z"/>
    <path d="M128 34V12h6v22h-6Z"/>
    <path d="M138 34V12h6l8.6 12.2V12h6v22h-6l-8.6-12.2V34h-6Z"/>
    <path d="M170 34V12h20v6h-14v2h12v6h-12v2h14v6h-20Z"/>
    <path d="M196 34V12h6v16h10v6h-16Z"/>
  </g>
</svg>
