<svg width="128" height="128" viewBox="0 0 128 128" fill="none" xmlns="http://www.w3.org/2000/svg">
  <!-- Background: rounded square with vibrant gradient -->
  <defs>
    <linearGradient id="mcg" x1="0" y1="0" x2="128" y2="128" gradientUnits="userSpaceOnUse">
      <stop offset="0" stop-color="#7C3AED"/>
      <stop offset="1" stop-color="#06B6D4"/>
    </linearGradient>
  </defs>
  <rect x="6" y="6" width="116" height="116" rx="24" fill="url(#mcg)"/>

  <!-- Emblem: stylized "M" with a spark/star -->
  <path d="M34 92L50 40c1.2-3.6 6.8-3.6 8 0l6 18 6-18c1.2-3.6 6.8-3.6 8 0l16 52c1 3.2-2.1 5.9-5.1 4.7-1.2-.5-2.1-1.5-2.4-2.7L80 64l-6.2 18.6c-1.3 3.9-6.6 3.9-7.9 0L60 64 51.5 94c-.4 1.3-1.3 2.2-2.5 2.7-3 1.2-6.1-1.6-5-4.7Z" fill="white"/>
  <path d="M95 33l2.8-5.6L104 24l-6.2-2.9L95 15l-2.8 6.1L86 24l6.2 3.4L95 33Z" fill="white"/>
</svg>
