<svg xmlns="http://www.w3.org/2000/svg" viewBox="0 5.199999809265137 584.6199951171875 43.459999084472656" data-asc="0.82373046875" width="584.6199951171875" height="43.459999084472656"><defs/><g fill="#f1c40f"><g transform="translate(0, 0)"><path d="M8.72 14.97L5.98 41.19L0 41.19L5.98 6.03L14.84 6.03L23.07 32.86L31.40 6.03L40.26 6.03L45.24 41.19L35.38 41.19L32.47 15.65L25.61 41.19L16.75 41.19L8.72 14.97ZM85.11 24.37L85.11 24.83Q85.06 26.88 84.68 29.08Q84.30 31.27 83.62 33.47Q82.93 35.67 81.98 37.82Q81.03 39.97 79.85 41.93Q78.66 43.90 77.29 45.62Q75.93 47.34 74.41 48.66L70.78 46.56Q71.63 45.12 72.33 43.42Q73.02 41.72 73.58 39.87Q74.15 38.01 74.55 36.06Q74.95 34.11 75.22 32.18Q75.49 30.25 75.62 28.38Q75.76 26.51 75.76 24.83Q75.76 23.51 75.74 21.84Q75.73 20.17 75.55 18.43Q75.37 16.70 74.95 15.05Q74.54 13.40 73.72 12.11Q72.90 10.82 71.62 10.03Q70.34 9.25 68.43 9.25Q66.75 9.25 65.54 9.83Q64.33 10.40 63.49 11.36Q62.65 12.33 62.15 13.60Q61.65 14.87 61.36 16.27Q61.08 17.68 61.00 19.10Q60.91 20.53 60.91 21.80L60.91 28.61L71.44 28.61L71.44 32.64L60.91 32.64L60.91 41.19L51.22 41.19L51.22 23.32Q51.22 19.48 52.44 16.19Q53.66 12.89 55.90 10.46Q58.13 8.03 61.27 6.65Q64.40 5.27 68.26 5.27Q70.87 5.27 73.16 6.02Q75.44 6.76 77.32 8.07Q79.20 9.38 80.68 11.17Q82.15 12.96 83.14 15.09Q84.13 17.21 84.64 19.58Q85.16 21.95 85.11 24.37ZM123.34 14.75L119.17 16.50Q118.68 14.92 117.86 13.60Q117.04 12.28 115.91 11.34Q114.77 10.40 113.33 9.88Q111.89 9.35 110.18 9.35Q108.35 9.35 106.82 9.96Q105.30 10.57 104.09 11.61Q102.88 12.65 101.98 14.04Q101.07 15.43 100.48 17.00Q99.88 18.58 99.57 20.26Q99.27 21.95 99.27 23.56Q99.27 26.12 99.87 28.66Q100.46 31.20 101.77 33.23Q103.08 35.25 105.15 36.51Q107.23 37.77 110.18 37.77Q111.79 37.77 112.70 37.05Q113.60 36.33 113.60 34.52L113.60 23.73L123.29 23.73L123.29 41.19L120.48 41.19L118.77 38.43Q116.43 40.21 113.61 41.05Q110.79 41.89 107.86 41.89Q105.27 41.89 102.89 41.26Q100.51 40.63 98.46 39.45Q96.41 38.28 94.74 36.62Q93.07 34.96 91.88 32.93Q90.70 30.91 90.05 28.53Q89.40 26.15 89.40 23.56Q89.40 20.97 90.05 18.59Q90.70 16.21 91.88 14.17Q93.07 12.13 94.74 10.47Q96.41 8.81 98.46 7.64Q100.51 6.47 102.89 5.83Q105.27 5.20 107.86 5.20Q110.35 5.20 112.73 5.79Q115.11 6.37 117.16 7.56Q119.21 8.74 120.81 10.53Q122.41 12.33 123.34 14.75ZM139.84 41.19L130.15 41.19L130.15 6.03L139.84 6.03L139.84 41.19ZM179.74 14.75L175.56 16.50Q175.07 14.92 174.26 13.60Q173.44 12.28 172.30 11.34Q171.17 10.40 169.73 9.88Q168.29 9.35 166.58 9.35Q164.75 9.35 163.22 9.95Q161.69 10.55 160.49 11.60Q159.28 12.65 158.37 14.04Q157.47 15.43 156.86 17.00Q156.25 18.58 155.96 20.26Q155.66 21.95 155.66 23.56Q155.66 26.12 156.26 28.66Q156.86 31.20 158.17 33.23Q159.47 35.25 161.55 36.51Q163.62 37.77 166.58 37.77Q168.14 37.77 169.53 37.24Q170.92 36.72 172.06 35.80Q173.19 34.89 174.05 33.64Q174.90 32.40 175.42 30.96L179.64 32.64Q178.71 34.96 177.10 36.71Q175.49 38.45 173.43 39.60Q171.36 40.75 169.01 41.32Q166.65 41.89 164.26 41.89Q161.67 41.89 159.29 41.26Q156.91 40.63 154.86 39.45Q152.81 38.28 151.14 36.62Q149.46 34.96 148.28 32.93Q147.09 30.91 146.45 28.53Q145.80 26.15 145.80 23.56Q145.80 20.97 146.45 18.59Q147.09 16.21 148.28 14.17Q149.46 12.13 151.14 10.47Q152.81 8.81 154.86 7.64Q156.91 6.47 159.29 5.83Q161.67 5.20 164.26 5.20Q166.75 5.20 169.13 5.79Q171.51 6.37 173.56 7.56Q175.61 8.74 177.21 10.53Q178.81 12.33 179.74 14.75ZM217.33 14.75L213.16 16.50Q212.67 14.92 211.85 13.60Q211.04 12.28 209.90 11.34Q208.76 10.40 207.32 9.88Q205.88 9.35 204.17 9.35Q202.34 9.35 200.82 9.95Q199.29 10.55 198.08 11.60Q196.88 12.65 195.97 14.04Q195.07 15.43 194.46 17.00Q193.85 18.58 193.55 20.26Q193.26 21.95 193.26 23.56Q193.26 26.12 193.86 28.66Q194.46 31.20 195.76 33.23Q197.07 35.25 199.15 36.51Q201.22 37.77 204.17 37.77Q205.74 37.77 207.13 37.24Q208.52 36.72 209.66 35.80Q210.79 34.89 211.65 33.64Q212.50 32.40 213.01 30.96L217.24 32.64Q216.31 34.96 214.70 36.71Q213.09 38.45 211.02 39.60Q208.96 40.75 206.60 41.32Q204.25 41.89 201.86 41.89Q199.27 41.89 196.89 41.26Q194.51 40.63 192.46 39.45Q190.41 38.28 188.73 36.62Q187.06 34.96 185.88 32.93Q184.69 30.91 184.05 28.53Q183.40 26.15 183.40 23.56Q183.40 20.97 184.05 18.59Q184.69 16.21 185.88 14.17Q187.06 12.13 188.73 10.47Q190.41 8.81 192.46 7.64Q194.51 6.47 196.89 5.83Q199.27 5.20 201.86 5.20Q204.35 5.20 206.73 5.79Q209.11 6.37 211.16 7.56Q213.21 8.74 214.81 10.53Q216.41 12.33 217.33 14.75ZM232.69 41.19L223.00 41.19L223.00 6.03L240.28 6.03Q242.72 6.03 245.00 6.60Q247.27 7.18 249.01 8.41Q250.76 9.64 251.79 11.60Q252.83 13.55 252.83 16.33Q252.83 18.51 251.92 20.42Q251.00 22.34 249.48 23.84Q247.95 25.34 245.97 26.33Q243.99 27.32 241.87 27.64Q242.82 29.25 243.86 30.69Q244.90 32.13 245.96 33.39Q247.02 34.64 248.07 35.71Q249.12 36.77 250.07 37.65Q252.32 39.70 254.52 41.19L242.43 41.19Q240.97 39.79 239.65 37.84Q238.53 36.18 237.39 33.73Q236.25 31.27 235.64 28.05L232.69 28.05L232.69 41.19M242.99 16.33Q242.99 12.79 241.27 11.13Q239.55 9.47 236.11 9.47L232.69 9.47L232.69 24.73L236.11 24.73Q237.94 24.73 239.25 24.04Q240.55 23.34 241.38 22.18Q242.21 21.02 242.60 19.51Q242.99 17.99 242.99 16.33ZM292.55 24.37L292.55 24.83Q292.50 26.88 292.13 29.08Q291.75 31.27 291.06 33.47Q290.38 35.67 289.43 37.82Q288.48 39.97 287.29 41.93Q286.11 43.90 284.74 45.62Q283.37 47.34 281.86 48.66L278.22 46.56Q279.08 45.12 279.77 43.42Q280.47 41.72 281.03 39.87Q281.59 38.01 281.99 36.06Q282.40 34.11 282.67 32.18Q282.93 30.25 283.07 28.38Q283.20 26.51 283.20 24.83Q283.20 23.51 283.19 21.84Q283.18 20.17 283.00 18.43Q282.81 16.70 282.40 15.05Q281.98 13.40 281.16 12.11Q280.35 10.82 279.06 10.03Q277.78 9.25 275.88 9.25Q274.19 9.25 272.99 9.83Q271.78 10.40 270.94 11.36Q270.09 12.33 269.59 13.60Q269.09 14.87 268.81 16.27Q268.53 17.68 268.44 19.10Q268.36 20.53 268.36 21.80L268.36 28.61L278.88 28.61L278.88 32.64L268.36 32.64L268.36 41.19L258.67 41.19L258.67 23.32Q258.67 19.48 259.89 16.19Q261.11 12.89 263.34 10.46Q265.58 8.03 268.71 6.65Q271.85 5.27 275.71 5.27Q278.32 5.27 280.60 6.02Q282.89 6.76 284.77 8.07Q286.65 9.38 288.12 11.17Q289.60 12.96 290.59 15.09Q291.58 17.21 292.09 19.58Q292.60 21.95 292.55 24.37ZM308.54 41.19L298.85 41.19L298.85 6.03L324.10 6.03L324.10 10.52L308.54 10.52L308.54 21.39L320.56 21.39L320.56 25.85L308.54 25.85L308.54 41.19ZM345.41 41.19L335.72 41.19L335.72 10.52L326.15 10.52L326.15 6.03L354.98 6.03L354.98 10.52L345.41 10.52L345.41 41.19ZM372.88 25.83L356.47 25.83L356.47 21.34L372.88 21.34L372.88 25.83ZM394.63 41.19L385.77 41.19L376.54 6.03L386.43 6.03L392.26 30.98L397.44 6.03L406.32 6.03L411.99 31.62L418.36 6.03L424.34 6.03L414.11 41.19L405.22 41.19L400.27 18.73L394.63 41.19ZM461.62 24.37L461.62 24.83Q461.57 26.88 461.19 29.08Q460.82 31.27 460.13 33.47Q459.45 35.67 458.50 37.82Q457.54 39.97 456.36 41.93Q455.18 43.90 453.81 45.62Q452.44 47.34 450.93 48.66L447.29 46.56Q448.14 45.12 448.84 43.42Q449.54 41.72 450.10 39.87Q450.66 38.01 451.06 36.06Q451.46 34.11 451.73 32.18Q452.00 30.25 452.14 28.38Q452.27 26.51 452.27 24.83Q452.27 23.51 452.26 21.84Q452.25 20.17 452.06 18.43Q451.88 16.70 451.46 15.05Q451.05 13.40 450.23 12.11Q449.41 10.82 448.13 10.03Q446.85 9.25 444.95 9.25Q443.26 9.25 442.05 9.83Q440.84 10.40 440.00 11.36Q439.16 12.33 438.66 13.60Q438.16 14.87 437.88 16.27Q437.60 17.68 437.51 19.10Q437.43 20.53 437.43 21.80L437.43 28.61L447.95 28.61L447.95 32.64L437.43 32.64L437.43 41.19L427.73 41.19L427.73 23.32Q427.73 19.48 428.96 16.19Q430.18 12.89 432.41 10.46Q434.64 8.03 437.78 6.65Q440.92 5.27 444.78 5.27Q447.39 5.27 449.67 6.02Q451.95 6.76 453.83 8.07Q455.71 9.38 457.19 11.17Q458.67 12.96 459.66 15.09Q460.64 17.21 461.16 19.58Q461.67 21.95 461.62 24.37ZM493.16 41.19L467.92 41.19L467.92 6.03L477.61 6.03L477.61 36.72L493.16 36.72L493.16 41.19ZM522.97 41.19L497.73 41.19L497.73 6.03L507.42 6.03L507.42 36.72L522.97 36.72L522.97 41.19ZM552.78 41.19L527.54 41.19L527.54 6.03L552.78 6.03L552.78 10.52L537.23 10.52L537.23 21.39L549.24 21.39L549.24 25.85L537.23 25.85L537.23 36.69L552.78 36.69L552.78 41.19ZM575.05 41.19L565.36 41.19L565.36 10.52L555.79 10.52L555.79 6.03L584.62 6.03L584.62 10.52L575.05 10.52L575.05 41.19Z"/></g></g></svg>