<svg xmlns="http://www.w3.org/2000/svg" viewBox="0 7.900000095367432 317.1499938964844 42.561363220214844" data-asc="0.935" width="317.1499938964844" height="42.561363220214844"><defs/><g fill="#f1c40f"><g transform="translate(0, 0)"><path d="M42.65 14.95L42.65 38.55Q42.65 39.25 42.63 40Q42.60 40.75 42.50 41.45Q42.40 42.30 42.00 42.95Q41.95 43 41.85 43.23Q41.75 43.45 41.70 43.45Q41.70 43.45 41.60 43.35Q41.50 43.25 41.33 43.13Q41.15 43 41.10 42.90Q41.05 42.80 41.05 42.63Q41.05 42.45 41.05 42.35Q41.00 42 41.00 41.70Q41.00 41.40 41.00 41.05L41.00 20.10Q41.00 18.95 41.03 17.35Q41.05 15.75 40.95 14.65Q40.95 14.25 40.90 13.82Q40.85 13.40 40.65 13.05Q40.60 12.95 40.45 12.80Q40.30 12.65 40.20 12.55Q40.10 12.30 39.95 12.25Q39.85 12.15 39.65 12.10Q39.45 12.05 39.35 12Q38.60 11.75 37.78 11.75Q36.95 11.75 36.15 11.75L33.20 11.75Q32.80 11.80 32.33 11.82Q31.85 11.85 31.45 11.95Q30.50 12.25 29.88 13Q29.25 13.75 28.70 14.60L26.15 18.80Q25.75 19.45 25.35 20.13Q24.95 20.80 24.55 21.50Q24.35 21.85 24.10 22.22Q23.85 22.60 23.60 22.95L23.15 23.50Q23.10 23.55 23.07 23.60Q23.05 23.65 23 23.70Q22.90 23.75 22.68 23.75Q22.45 23.75 22.30 23.75L21.90 23.80Q21.85 23.75 21.78 23.65Q21.70 23.55 21.65 23.50Q21.45 23.25 21.25 23.05Q21.05 22.85 20.85 22.60Q20.30 21.75 19.80 20.85Q19.30 19.95 18.75 19.10Q18.10 18.05 17.45 16.97Q16.80 15.90 16.15 14.85Q15.65 14.05 15.07 13.27Q14.50 12.50 13.65 12.15Q13.25 11.95 12.78 11.90Q12.30 11.85 11.90 11.80Q11.10 11.70 10.35 11.73Q9.60 11.75 8.80 11.75Q8.05 11.75 7.28 11.73Q6.50 11.70 5.75 11.90L5.15 12.05Q4.95 12.15 4.65 12.35Q4.35 12.55 4.25 12.75L4.10 13.10Q3.80 13.75 3.75 14.35Q3.60 15.45 3.65 17Q3.70 18.55 3.70 19.70L3.70 43.15Q3.75 43.65 3.80 44.15Q3.85 44.65 4.05 45.15Q4.15 45.55 4.25 45.70Q4.30 45.85 4.55 45.95Q4.65 46.05 4.78 46.17Q4.90 46.30 5.05 46.40Q5.20 46.45 5.43 46.50Q5.65 46.55 5.85 46.60Q6.30 46.70 6.78 46.73Q7.25 46.75 7.70 46.75L10.75 46.75Q11.05 46.75 11.35 46.75Q11.65 46.75 11.95 46.80Q12.05 46.85 12.22 46.85Q12.40 46.85 12.45 46.90Q12.70 47 12.75 47.15Q12.85 47.20 13 47.30Q13.15 47.40 13.20 47.50Q13.20 47.55 13.07 47.73Q12.95 47.90 12.90 48L12.75 48.40Q12.70 48.45 12.53 48.50Q12.35 48.55 12.25 48.65Q11.35 49.05 10.45 49.05Q9.35 49.10 7.75 49.10Q6.15 49.10 5 49.05Q4.05 49 3.13 48.75Q2.20 48.50 1.50 47.75Q1 47.20 0.75 46.52Q0.50 45.85 0.35 45.20Q0.15 44.45 0.08 43.33Q0 42.20 0 41.08Q0 39.95 0 39.20L0 15.85Q0 15.10 0.03 14.27Q0.05 13.45 0.30 12.80Q0.80 11.70 1.75 11.20Q2.20 10.95 2.73 10.85Q3.25 10.75 3.75 10.55Q4.75 10.10 5.63 9.40Q6.50 8.70 7.60 8.50Q8.30 8.35 9.05 8.35Q9.80 8.35 10.50 8.35Q11.60 8.35 12.80 8.35Q14 8.35 15 8.75Q15.95 9.10 16.75 10Q17.15 10.45 17.50 10.98Q17.85 11.50 18.20 12.05L20.10 15.20Q20.30 15.50 20.55 15.88Q20.80 16.25 21.10 16.50Q21.20 16.55 21.35 16.60Q21.50 16.65 21.60 16.75L22 16.95Q22.10 16.95 22.23 16.90Q22.35 16.85 22.40 16.80Q22.55 16.75 22.73 16.70Q22.90 16.65 23 16.60Q23.15 16.50 23.32 16.27Q23.50 16.05 23.60 15.90Q23.80 15.70 23.95 15.45Q24.10 15.20 24.25 15Q24.70 14.25 25.18 13.48Q25.65 12.70 26.30 12.10Q27.15 11.35 28.18 11.13Q29.20 10.90 30.15 10.45Q30.90 10.05 31.53 9.52Q32.15 9 32.90 8.75Q34.00 8.30 35.30 8.32Q36.60 8.35 37.70 8.35Q38.45 8.35 39.25 8.38Q40.05 8.40 40.75 8.65Q40.90 8.70 41.08 8.73Q41.25 8.75 41.40 8.85L41.75 9.25Q42.00 9.40 42.15 9.65Q42.40 10 42.48 10.48Q42.55 10.95 42.60 11.35Q42.70 12.20 42.68 13.07Q42.65 13.95 42.65 14.95M21.10 40.60Q20.45 40.65 19.82 40.67Q19.20 40.70 18.60 40.90Q18.50 40.95 18.35 40.98Q18.20 41 18.10 41.10Q17.90 41.20 17.68 41.42Q17.45 41.65 17.30 41.80Q17.05 42.15 16.88 42.50Q16.70 42.85 16.45 43.20Q16.40 43.25 16.32 43.42Q16.25 43.60 16.15 43.65Q16.10 43.70 15.85 43.67Q15.60 43.65 15.60 43.60Q15.55 43.55 15.55 43.38Q15.55 43.20 15.55 43.15Q15.50 42.75 15.47 42.38Q15.45 42 15.45 41.65L15.45 36.05Q15.45 35.65 15.45 35.23Q15.45 34.80 15.55 34.40Q15.60 34.30 15.63 34.10Q15.65 33.90 15.70 33.85Q15.80 33.80 15.88 33.83Q15.95 33.85 16 33.85Q16.10 33.85 16.30 33.83Q16.50 33.80 16.60 33.85Q16.70 33.90 16.82 34.08Q16.95 34.25 17 34.35Q17.60 35.10 18.10 35.95Q18.60 36.80 19.30 37.40Q19.90 37.85 20.60 38.02Q21.30 38.20 21.95 38.30Q22.25 38.30 22.53 38.33Q22.80 38.35 23.10 38.40Q23.20 38.45 23.35 38.45Q23.50 38.45 23.55 38.50Q23.60 38.55 23.60 38.75Q23.60 38.95 23.65 39.05Q23.65 39.10 23.70 39.23Q23.75 39.35 23.70 39.45Q23.70 39.50 23.55 39.60Q23.40 39.70 23.30 39.80Q22.85 40.15 22.32 40.33Q21.80 40.50 21.10 40.60M36.70 49Q35.75 49.05 34.83 49.08Q33.90 49.10 32.95 49.10Q32.20 49.10 31.48 49.08Q30.75 49.05 30 49Q29.05 48.90 28.15 48.55Q27.25 48.20 26.70 47.40Q26.35 46.80 26.13 46.08Q25.90 45.35 25.80 44.70Q25.65 43.90 25.60 43.08Q25.55 42.25 25.55 41.45Q25.55 40.30 25.65 39.25Q25.75 38.20 26.10 37.10Q26.35 36.50 26.70 35.83Q27.05 35.15 27.50 34.70Q27.60 34.60 27.73 34.50Q27.85 34.40 27.90 34.35Q28 34.30 28.03 34.25Q28.05 34.20 28.10 34.15Q28.20 34.15 28.32 34.20Q28.45 34.25 28.50 34.30Q28.60 34.30 28.78 34.33Q28.95 34.35 29 34.45Q29.10 34.50 29.10 34.67Q29.10 34.85 29.15 34.95Q29.25 35.35 29.25 35.75Q29.25 36.15 29.25 36.55L29.25 42.15Q29.25 42.80 29.28 43.40Q29.30 44 29.45 44.55Q29.50 44.70 29.53 44.85Q29.55 45 29.60 45.10Q30.10 46.15 31.20 46.55Q31.40 46.60 31.60 46.63Q31.80 46.65 32 46.65Q32.70 46.75 33.40 46.75Q34.10 46.75 34.80 46.75L36.35 46.75Q36.75 46.75 37.18 46.75Q37.60 46.75 38.00 46.85Q38.10 46.90 38.30 46.90Q38.50 46.90 38.55 47Q38.65 47.05 38.68 47.17Q38.70 47.30 38.70 47.35Q38.75 47.40 38.83 47.58Q38.90 47.75 38.90 47.85Q38.80 48.05 38.50 48.20Q38.35 48.45 38.10 48.60Q37.90 48.75 37.50 48.85Q37.10 48.95 36.70 49ZM75.35 28.40L69.40 28.40Q68.30 28.40 67.18 28.20Q66.05 28 65.20 27.20Q64.90 26.95 64.63 26.63Q64.35 26.30 64.05 26.05Q63.90 25.80 63.65 25.65L63.15 25.50Q63.05 25.50 62.88 25.42Q62.70 25.35 62.60 25.40Q62.55 25.40 62.48 25.52Q62.40 25.65 62.35 25.70Q62.30 25.75 62.15 25.88Q62.00 26 61.95 26.10Q61.90 26.25 61.95 26.50Q62.00 26.75 62.00 26.90Q62.00 27.10 62.10 27.32Q62.20 27.55 62.25 27.80Q62.50 28.35 62.78 28.88Q63.05 29.40 63.35 29.95Q63.45 30.15 63.58 30.27Q63.70 30.40 63.80 30.60Q63.90 30.65 63.95 30.75Q64 30.85 64.05 30.90Q64.15 30.95 64.30 30.95Q64.45 30.95 64.50 30.95Q64.60 31 64.78 31.05Q64.95 31.10 65.05 31.05Q65.20 31.05 65.35 30.98Q65.50 30.90 65.60 30.85Q66 30.70 66.38 30.52Q66.75 30.35 67.15 30.25Q67.65 30.05 68.20 30.02Q68.75 30 69.25 29.95Q70.40 29.90 71.55 29.93Q72.70 29.95 73.80 29.95Q74.50 29.95 75.30 29.97Q76.10 30 76.75 30.25Q77.60 30.55 78.05 31.17Q78.50 31.80 79 32.45Q79.40 32.95 79.93 33.33Q80.45 33.70 80.95 34.15L81.45 34.60Q81.85 35.15 81.90 35.83Q81.95 36.50 81.85 37.15Q81.75 38.10 81.40 39.05Q81.05 40 80.55 40.85Q80.10 41.65 79.50 42.38Q78.90 43.10 78.30 43.80Q77.50 44.75 76.63 45.65Q75.75 46.55 74.70 47.25Q74.25 47.70 72.83 48.17Q71.40 48.65 69.53 49.08Q67.65 49.50 65.78 49.83Q63.90 50.15 62.48 50.33Q61.05 50.50 60.60 50.45Q60.05 50.40 58.60 50.23Q57.15 50.05 55.40 49.70Q53.65 49.35 52.20 48.90Q50.75 48.45 50.20 47.90Q49.55 47.45 48.90 46.95Q48.25 46.45 47.70 45.85Q47.05 45.10 46.45 44.27Q45.85 43.45 45.25 42.65Q44.35 41.55 43.65 40.45Q42.45 38.60 42.00 36.35Q41.75 35.60 41.63 34.15Q41.50 32.70 41.48 31.25Q41.45 29.80 41.45 29.05Q41.45 28.50 41.55 26.92Q41.65 25.35 41.85 23.45Q42.05 21.55 42.43 19.97Q42.80 18.40 43.35 17.85Q44.05 16.70 45.08 15.60Q46.10 14.50 47.20 13.55Q48.35 12.50 49.70 11.50Q51.05 10.50 52.15 9.80Q53.30 9.25 54.70 8.85Q56.10 8.45 57.20 8.25Q58.30 8.05 59.40 7.97Q60.50 7.90 61.60 7.90Q62.05 7.90 63.28 8.10Q64.50 8.30 66.08 8.65Q67.65 9 69.20 9.45Q70.75 9.90 71.98 10.38Q73.20 10.85 73.65 11.30Q74.55 11.95 75.30 12.77Q76.05 13.60 76.85 14.40Q77.45 15.05 78.10 15.63Q78.75 16.20 79.30 16.85Q80 17.70 80.58 18.70Q81.15 19.70 81.50 20.80Q81.75 21.45 81.88 22.13Q82 22.80 81.90 23.50Q81.85 23.60 81.88 23.75Q81.90 23.90 81.85 24Q81.65 24.65 81.13 25.20Q80.60 25.75 80.15 26.30Q79.75 26.80 79.33 27.30Q78.90 27.80 78.25 28.05Q77.65 28.30 76.90 28.35Q76.15 28.40 75.35 28.40M71.80 33.35Q70.70 33.35 69.25 33.40Q67.80 33.45 66.70 34.30Q66.30 34.65 65.98 35.08Q65.65 35.50 65.25 35.90Q64.70 36.45 63.98 36.85Q63.25 37.25 62.45 37.25Q61.35 37.30 60.38 36.65Q59.40 36 59.00 34.90Q58.80 34.30 58.73 33.63Q58.65 32.95 58.60 32.30Q58.55 31.45 58.55 30.55Q58.55 29.65 58.55 28.80Q58.55 28.25 58.55 27.70Q58.55 27.15 58.60 26.65Q58.60 25.75 58.70 24.80Q58.80 23.85 59.25 23.05Q59.65 22.30 60.30 21.85Q60.55 21.65 60.80 21.55Q61.05 21.45 61.40 21.35Q63.25 20.85 64.75 22.10Q65.15 22.45 65.50 22.88Q65.85 23.30 66.20 23.70Q66.95 24.55 67.90 24.90Q68.50 25.10 69.15 25.13Q69.80 25.15 70.45 25.15L73.65 25.15Q74.40 25.15 75.18 25.17Q75.95 25.20 76.70 25.05Q76.90 25 77.10 24.97Q77.30 24.95 77.50 24.90Q78.60 24.40 78.85 23.25Q78.90 23.10 78.90 22.92Q78.90 22.75 78.90 22.55Q78.95 21.80 78.73 21.02Q78.50 20.25 78.20 19.55Q77.70 19 76.83 18.10Q75.95 17.20 74.95 16.25Q73.95 15.30 73.03 14.45Q72.10 13.60 71.55 13.10Q70.45 12.50 68.90 12.15Q67.35 11.80 66.20 11.60Q64.75 11.35 63.30 11.30Q62.85 11.25 61.28 11.75Q59.70 12.25 57.58 13.10Q55.45 13.95 53.33 14.90Q51.20 15.85 49.63 16.67Q48.05 17.50 47.60 17.95Q47.05 18.50 46.65 19.92Q46.25 21.35 46.00 23.05Q45.75 24.75 45.65 26.17Q45.55 27.60 45.55 28.15Q45.55 28.60 45.60 29.82Q45.65 31.05 45.78 32.65Q45.90 34.25 46.13 35.88Q46.35 37.50 46.68 38.73Q47.00 39.95 47.45 40.40Q47.90 40.85 49.48 41.70Q51.05 42.55 53.18 43.52Q55.30 44.50 57.43 45.35Q59.55 46.20 61.13 46.73Q62.70 47.25 63.15 47.20Q63.85 47.15 64.58 47.10Q65.30 47.05 65.95 46.95Q67.10 46.80 68.35 46.52Q69.60 46.25 70.70 45.80Q71.45 45.35 72.63 44.60Q73.80 43.85 74.98 42.98Q76.15 42.10 76.90 41.35Q77.35 40.70 77.70 40.02Q78.05 39.35 78.35 38.65Q78.70 37.80 78.90 36.70Q79.10 35.60 78.65 34.75Q78.60 34.65 78.53 34.48Q78.45 34.30 78.35 34.25Q78.05 33.90 77.60 33.73Q77.15 33.55 76.70 33.50Q76.30 33.40 75.83 33.38Q75.35 33.35 74.85 33.35L71.80 33.35M61.70 31.85L62.00 32.45Q62.05 32.50 62.08 32.58Q62.10 32.65 62.15 32.70Q62.20 32.75 62.35 32.70Q62.50 32.65 62.55 32.65Q62.65 32.65 62.80 32.65Q62.95 32.65 63.00 32.60Q63.10 32.55 63.08 32.48Q63.05 32.40 63.10 32.35Q63.15 32.20 63.20 32Q63.25 31.80 63.25 31.65Q63.25 31.55 63.20 31.45Q63.15 31.35 63.15 31.30Q63.10 31.15 63.05 30.95Q63.00 30.75 62.90 30.65Q62.85 30.55 62.70 30.45Q62.55 30.35 62.45 30.25Q62.40 30.25 62.30 30.13Q62.20 30 62.15 30Q62.10 30 62.03 30.15Q61.95 30.30 61.95 30.30Q61.90 30.40 61.80 30.55Q61.70 30.70 61.70 30.80Q61.65 31 61.65 31.25Q61.65 31.50 61.70 31.85ZM86.85 36.65L95.50 36.65Q96 36.65 96.45 36.63Q96.90 36.60 97.40 36.65L98.20 36.80Q98.30 36.80 98.38 36.77Q98.45 36.75 98.50 36.85Q98.55 36.90 98.55 37.10Q98.55 37.30 98.60 37.40L98.65 37.85Q98.60 37.90 98.48 37.95Q98.35 38 98.30 38.05Q98.10 38.20 97.88 38.30Q97.65 38.40 97.40 38.50Q96.45 38.70 95.43 38.75Q94.40 38.80 93.40 38.80L84.85 38.80Q84.05 38.80 83.15 38.80Q82.25 38.80 81.45 38.50Q81.30 38.40 81.13 38.35Q80.95 38.30 80.85 38.25Q80.15 37.85 79.83 37.10Q79.50 36.35 79.40 35.60Q79.30 34.90 79.30 34.17Q79.30 33.45 79.30 32.75Q79.30 31.90 79.35 30.95Q79.40 30 79.75 29.20Q80 28.65 80.35 28.13Q80.70 27.60 81.05 27.15Q81.50 26.55 82.03 26Q82.55 25.45 83.25 25.15Q84.05 24.90 84.93 24.88Q85.80 24.85 86.60 24.85L92.05 24.85Q93.20 24.85 94.93 24.82Q96.65 24.80 97.75 24.90Q98.30 24.95 98.75 25.10Q99.20 25.25 99.60 25.50Q99.70 25.55 99.85 25.63Q100 25.70 100.05 25.80Q100.15 25.90 100.18 26.13Q100.20 26.35 100.25 26.45Q100.25 26.60 100.25 26.60Q100.20 26.65 100.15 26.65Q100.10 26.65 100 26.70Q99.85 26.75 99.70 26.82Q99.55 26.90 99.35 26.90Q99.15 26.95 98.93 26.92Q98.70 26.90 98.45 26.85L86.10 26.85Q85.75 26.90 85.30 26.92Q84.85 26.95 84.50 27.05Q83.45 27.45 82.95 28.50Q82.90 28.65 82.90 28.85Q82.90 29.05 82.85 29.20Q82.70 29.85 82.70 30.57Q82.70 31.30 82.70 32Q82.70 32.35 82.70 32.67Q82.70 33 82.75 33.35Q82.75 33.85 82.85 34.38Q82.95 34.90 83.25 35.35Q83.35 35.60 83.50 35.85L84 36.15Q84.10 36.20 84.23 36.27Q84.35 36.35 84.45 36.40Q85 36.60 85.60 36.63Q86.20 36.65 86.85 36.65ZM147.25 19.65Q147 20 146.73 21.72Q146.45 23.45 146.18 25.90Q145.90 28.35 145.63 31.07Q145.35 33.80 145.07 36.25Q144.80 38.70 144.53 40.40Q144.25 42.10 143.95 42.50Q143.80 43.50 143.68 44.50Q143.55 45.50 143.35 46.50Q143.20 47.15 142.95 47.83Q142.70 48.50 142.20 48.95Q141.85 49.30 141.30 49.48Q140.75 49.65 140.25 49.70Q139.55 49.80 138.80 49.80Q138.05 49.80 137.30 49.80Q136.20 49.80 134.88 49.77Q133.55 49.75 132.40 49.55Q131.70 49.45 130.93 49.27Q130.15 49.10 129.55 48.70Q128.50 48 128.13 46.85Q127.75 45.70 127.10 44.75Q127.05 44.55 126.90 44.30Q126.75 44.05 126.60 43.95Q126.55 43.85 126.43 43.83Q126.30 43.80 126.20 43.75Q126.15 43.75 126.03 43.67Q125.90 43.60 125.80 43.60L125.55 43.95Q125.35 44.15 125.20 44.38Q125.05 44.60 124.95 44.85Q124.70 45.40 124.48 45.98Q124.25 46.55 124 47.10Q123.80 47.45 123.60 47.85Q123.40 48.25 123.15 48.55Q122.50 49.30 121.53 49.52Q120.55 49.75 119.55 49.80Q118.80 49.80 117.45 49.80Q116.10 49.80 114.78 49.73Q113.45 49.65 112.70 49.50Q111.90 49.40 111.05 49.17Q110.20 48.95 109.65 48.35Q109.15 47.80 108.92 47.10Q108.70 46.40 108.55 45.75Q108.35 44.60 108.20 43.38Q108.05 42.15 107.85 41.05Q107.65 40.65 107.42 39.30Q107.20 37.95 106.98 36Q106.75 34.05 106.53 31.90Q106.30 29.75 106.08 27.80Q105.85 25.85 105.65 24.47Q105.45 23.10 105.20 22.75Q105.10 22 104.92 20.88Q104.75 19.75 104.60 18.65Q104.45 17.55 104.40 16.80Q104.40 16.55 104.40 16.25Q104.40 15.95 104.45 15.70Q104.45 15.60 104.53 15.47Q104.60 15.35 104.65 15.25Q104.70 15.20 104.75 15.02Q104.80 14.85 104.85 14.85Q104.90 14.85 105 15Q105.10 15.15 105.15 15.15Q105.20 15.20 105.30 15.27Q105.40 15.35 105.45 15.45Q105.55 15.65 105.58 15.92Q105.60 16.20 105.65 16.40Q105.90 17.50 106.08 19.20Q106.25 20.90 106.45 22.05Q106.70 22.50 106.92 24.17Q107.15 25.85 107.40 28.13Q107.65 30.40 107.90 32.67Q108.15 34.95 108.38 36.63Q108.60 38.30 108.85 38.75Q109 39.85 109.17 40.92Q109.35 42 109.55 43.05Q109.65 43.70 109.88 44.40Q110.10 45.10 110.60 45.60Q111.05 46.10 111.70 46.33Q112.35 46.55 113 46.65Q113.75 46.70 114.53 46.73Q115.30 46.75 116.05 46.75Q117.20 46.75 118.50 46.63Q119.80 46.50 120.70 45.60Q121.40 44.90 121.85 43.90Q122.30 42.90 122.65 41.95Q123.05 41 123.38 40.02Q123.70 39.05 124.20 38.20Q124.30 38.05 124.38 37.85Q124.45 37.65 124.55 37.60Q124.65 37.50 124.80 37.42Q124.95 37.35 125.05 37.30Q125.15 37.30 125.28 37.23Q125.40 37.15 125.45 37.15Q125.55 37.15 125.70 37.27Q125.85 37.40 125.90 37.45Q126.30 37.75 126.53 38.20Q126.75 38.65 126.95 39.10Q127.35 40 127.70 40.92Q128.05 41.85 128.40 42.75Q128.65 43.35 128.90 43.95Q129.15 44.55 129.50 45.05Q130.10 46 131.20 46.40Q132.05 46.75 133.03 46.75Q134 46.75 134.90 46.75Q135.60 46.75 136.25 46.75Q136.90 46.75 137.55 46.70Q138.10 46.65 138.63 46.52Q139.15 46.40 139.60 46.10Q140.20 45.70 140.50 45.08Q140.80 44.45 141 43.80Q141.35 42.65 141.50 41.25Q141.65 39.85 141.85 38.75Q142.10 38.30 142.32 36.58Q142.55 34.85 142.80 32.55Q143.05 30.25 143.30 27.93Q143.55 25.60 143.80 23.90Q144.05 22.20 144.30 21.75Q144.45 20.60 144.63 19.30Q144.80 18 145 16.90Q145.05 16.50 145.13 16.13Q145.20 15.75 145.25 15.40Q145.30 15.30 145.30 15.10Q145.30 14.90 145.35 14.85Q145.45 14.75 145.65 14.63Q145.85 14.50 145.95 14.40Q146.10 14.25 146.15 14.25Q146.25 14.25 146.35 14.35Q146.45 14.45 146.50 14.50Q146.60 14.55 146.80 14.65Q147 14.75 147.05 14.85Q147.15 14.95 147.18 15.10Q147.20 15.25 147.25 15.35Q147.65 16.35 147.55 17.42Q147.45 18.50 147.25 19.65M119.65 17.35Q119.80 18.10 119.90 18.85Q120 19.60 120.15 20.35Q120.25 20.95 120.38 21.55Q120.50 22.15 120.40 22.80Q120.40 23 120.33 23.22Q120.25 23.45 120.20 23.70Q120.10 24.10 119.93 24.50Q119.75 24.90 119.45 25.15L119.15 25.45Q119.05 25.55 119.05 25.55Q119 25.55 119 25.40L118.85 24.90Q118.70 24.35 118.65 23.82Q118.60 23.30 118.50 22.75Q118.40 22 118.28 20.80Q118.15 19.60 118.03 18.40Q117.90 17.20 117.75 16.45Q117.70 16.05 117.68 15.65Q117.65 15.25 117.70 14.90L117.70 14.35Q117.80 14.30 117.88 14.35Q117.95 14.40 118 14.40Q118.15 14.45 118.35 14.50Q118.55 14.55 118.65 14.70Q118.75 14.90 118.90 15.07Q119.05 15.25 119.15 15.50Q119.35 15.90 119.45 16.35Q119.55 16.80 119.65 17.35M132.10 18.20Q132.15 17.80 132.20 17.40Q132.25 17 132.30 16.65Q132.35 16.55 132.35 16.35Q132.35 16.15 132.40 16.10Q132.45 16.05 132.63 16.02Q132.80 16 132.85 16Q132.90 16 132.93 15.97Q132.95 15.95 133 15.95L132.95 16.40Q132.90 16.75 132.88 17.10Q132.85 17.45 132.75 17.85Q132.60 18.95 132.47 20.50Q132.35 22.05 132.10 23.20Q132.05 23.95 131.75 24.55Q131.70 24.60 131.65 24.75Q131.60 24.90 131.55 24.95Q131.50 24.95 131.50 24.90Q131.50 24.85 131.45 24.85L131 24.50Q130.55 24.15 130.55 23.47Q130.55 22.80 130.75 22.30Q130.85 22.10 131 21.92Q131.15 21.75 131.25 21.60Q131.75 20.90 131.88 20Q132 19.10 132.10 18.20ZM182.30 48.85Q181.20 48.85 179.75 48.88Q178.30 48.90 177.15 48.75Q176.55 48.65 175.97 48.52Q175.40 48.40 174.85 48.30Q174.10 48.20 173.30 48.05Q172.50 47.90 171.80 47.55Q171.05 47.15 170.60 46.48Q170.15 45.80 169.50 45.30Q168.90 44.75 168.13 44.55Q167.35 44.35 166.50 44.30Q165.75 44.30 164.90 44.42Q164.05 44.55 163.40 45Q162.45 45.65 161.97 46.67Q161.50 47.70 160.50 48.30Q159.70 48.75 158.70 48.80Q157.70 48.85 156.80 48.85Q155.70 48.85 154.45 48.88Q153.20 48.90 152.05 48.80Q151.30 48.70 150.55 48.58Q149.80 48.45 149.10 48.25Q148.60 48.15 148.13 48.08Q147.65 48 147.20 47.90L146.65 47.75Q146.50 47.65 146.20 47.35Q146.10 47.25 145.97 47.17Q145.85 47.10 145.75 47Q145.70 46.90 145.65 46.73Q145.60 46.55 145.55 46.45Q145.35 45.95 145.32 45.42Q145.30 44.90 145.25 44.40Q145.20 43.65 145.22 42.92Q145.25 42.20 145.40 41.50Q145.60 40.40 145.97 39.38Q146.35 38.35 146.70 37.35Q147.10 36.95 147.70 35.33Q148.30 33.70 149.03 31.35Q149.75 29 150.53 26.40Q151.30 23.80 152.03 21.45Q152.75 19.10 153.38 17.45Q154 15.80 154.35 15.45Q154.70 14.45 155.05 13.40Q155.40 12.35 155.80 11.40Q156.05 10.75 156.43 10.13Q156.80 9.50 157.35 9.10Q158.05 8.60 158.88 8.48Q159.70 8.35 160.50 8.30Q161.65 8.25 163.38 8.27Q165.10 8.30 166.20 8.30Q167.15 8.30 168.15 8.32Q169.15 8.35 170 8.75Q170.60 9 171.10 9.42Q171.60 9.85 172.10 10.25Q172.65 10.65 173.20 11.13Q173.75 11.60 174.15 12.15Q174.55 12.60 174.82 13.17Q175.10 13.75 175.35 14.30Q175.75 15.10 176.07 15.95Q176.40 16.80 176.75 17.65Q177.20 18.10 177.75 19.65Q178.30 21.20 178.88 23.30Q179.45 25.40 180.03 27.50Q180.60 29.60 181.15 31.15Q181.70 32.70 182.15 33.15Q182.60 33.70 183.07 35.20Q183.55 36.70 184.03 38.50Q184.50 40.30 184.97 41.80Q185.45 43.30 185.90 43.85Q186.10 44.45 186.30 45.05Q186.50 45.65 186.55 46.25Q186.60 46.45 186.65 46.63Q186.70 46.80 186.65 46.95Q186.65 47.05 186.57 47.20Q186.50 47.35 186.45 47.50Q186.40 47.60 186.38 47.75Q186.35 47.90 186.25 48Q186.20 48.05 186.05 48.13Q185.90 48.20 185.80 48.30Q185.70 48.35 185.57 48.45Q185.45 48.55 185.35 48.60Q185.25 48.65 185.05 48.67Q184.85 48.70 184.70 48.75Q184.20 48.80 183.60 48.83Q183 48.85 182.30 48.85M183.30 42.05Q182.95 41.65 182.35 40.10Q181.75 38.55 181.07 36.33Q180.40 34.10 179.65 31.63Q178.90 29.15 178.22 26.92Q177.55 24.70 176.97 23.13Q176.40 21.55 176 21.20Q175.55 20.05 175.07 18.42Q174.60 16.80 174.10 15.70Q173.85 14.90 173.50 14.02Q173.15 13.15 172.50 12.60Q172 12.20 171.32 12.02Q170.65 11.85 170 11.80Q169 11.70 168 11.73Q167 11.75 166 11.75Q164.95 11.75 163.88 11.73Q162.80 11.70 161.75 11.75Q161 11.80 160.25 11.90Q159.50 12 158.90 12.50Q158.40 12.90 158.07 13.55Q157.75 14.20 157.50 14.80Q157.10 15.85 156.75 16.90Q156.40 17.95 156 19Q155.55 19.45 155 21.05Q154.45 22.65 153.85 24.80Q153.25 26.95 152.63 29.10Q152 31.25 151.45 32.85Q150.90 34.45 150.45 34.90Q150.05 35.65 149.63 37.05Q149.20 38.45 148.80 39.85Q148.40 41.25 147.95 42Q147.75 42.65 147.53 43.25Q147.30 43.85 147.20 44.50Q147.20 44.65 147.15 44.85Q147.10 45.05 147.15 45.20Q147.15 45.30 147.25 45.45Q147.35 45.60 147.40 45.70Q147.45 45.75 147.50 45.90Q147.55 46.05 147.65 46.15Q147.75 46.25 147.93 46.30Q148.10 46.35 148.25 46.45Q149 46.80 149.93 46.77Q150.85 46.75 151.65 46.75L155.65 46.75Q156.25 46.70 156.93 46.60Q157.60 46.50 158.10 46.15Q158.95 45.60 159.32 44.65Q159.70 43.70 160.35 43.05Q160.45 42.95 160.55 42.85Q160.65 42.75 160.70 42.70Q160.80 42.60 160.95 42.58Q161.10 42.55 161.20 42.50Q161.85 42.25 162.53 42.23Q163.20 42.20 163.85 42.20L167.80 42.20Q168.30 42.20 168.75 42.23Q169.20 42.25 169.65 42.35Q169.80 42.40 169.95 42.40Q170.10 42.40 170.20 42.50Q171 42.85 171.35 43.60Q171.70 44.35 172.15 45Q172.80 45.95 173.75 46.40Q174.45 46.70 175.25 46.73Q176.05 46.75 176.80 46.75Q177.95 46.75 179.22 46.75Q180.50 46.75 181.60 46.70Q181.95 46.70 182.25 46.63Q182.55 46.55 182.90 46.45Q183.05 46.45 183.25 46.35Q183.40 46.25 183.50 46.10Q183.60 45.95 183.70 45.85Q183.75 45.75 183.82 45.67Q183.90 45.60 183.95 45.55Q184.05 45.45 184.03 45.23Q184 45 184 44.90Q184.05 44.20 183.80 43.50Q183.55 42.80 183.30 42.05M163.60 31.10Q163.60 30.85 163.57 30.60Q163.55 30.35 163.55 30.10Q163.60 29.70 163.75 29.27Q163.90 28.85 164 28.50Q164.15 28 164.28 27.52Q164.40 27.05 164.60 26.60Q164.70 26.45 164.78 26.20Q164.85 25.95 164.95 25.85Q165.05 25.75 165.18 25.70Q165.30 25.65 165.40 25.60Q165.45 25.60 165.57 25.52Q165.70 25.45 165.75 25.45Q165.85 25.45 165.88 25.52Q165.90 25.60 165.95 25.65Q166.40 26.10 166.60 26.60Q166.85 27.15 167.03 27.75Q167.20 28.35 167.40 29Q167.50 29.35 167.60 29.72Q167.70 30.10 167.70 30.50Q167.70 30.70 167.63 30.90Q167.55 31.10 167.50 31.30Q167.50 31.50 167.45 31.55Q167.40 31.65 167.25 31.75Q167.10 31.85 167 31.95Q166.95 32 166.88 32.08Q166.80 32.15 166.70 32.20Q166.60 32.25 166.43 32.25Q166.25 32.25 166.15 32.30Q165.80 32.35 165.38 32.35Q164.95 32.35 164.60 32.20Q164.40 32.10 164.15 31.90Q164.10 31.80 163.97 31.73Q163.85 31.65 163.75 31.60Q163.70 31.55 163.60 31.10ZM218.65 39.50L218.65 39.65Q218.65 40.50 218.63 41.40Q218.60 42.30 218.50 43.20Q218.45 43.60 218.38 44.05Q218.30 44.50 218.10 44.90Q217.70 45.65 217.03 46.13Q216.35 46.60 215.80 47.15Q215.20 47.70 214.72 48.35Q214.25 49 213.45 49.35Q213.10 49.50 212.63 49.55Q212.15 49.60 211.75 49.60Q210.95 49.65 210.13 49.65Q209.30 49.65 208.45 49.65L191.35 49.65Q190.80 49.65 190.18 49.60Q189.55 49.55 189 49.35L188.45 49.05Q188.40 48.95 188.30 48.90Q188.20 48.85 188.10 48.80Q187.50 48.25 187.35 47.42Q187.20 46.60 187 45.85Q186.80 45 186.45 44.23Q186.10 43.45 185.80 42.65Q185.50 41.70 185.40 40.75Q185.30 39.80 185.30 38.85Q185.30 37.90 185.30 35.80Q185.30 33.70 185.30 30.98Q185.30 28.25 185.30 25.45Q185.30 22.65 185.30 20.35L185.30 14.20Q185.30 13.35 185.28 12.40Q185.25 11.45 185.40 10.60Q185.45 10.35 185.53 10.07Q185.60 9.80 185.70 9.60Q186.30 8.45 187.47 8.20Q188.65 7.95 189.75 7.95L193.20 7.95Q193.90 7.95 194.57 7.97Q195.25 8 195.90 8.15Q196.75 8.30 197.47 8.60Q198.20 8.90 199 9.15Q199.70 9.35 200.35 9.45Q201 9.55 201.60 9.80Q201.75 9.85 201.90 9.90Q202.05 9.95 202.10 10Q202.20 10.05 202.32 10.17Q202.45 10.30 202.50 10.40Q202.60 10.50 202.72 10.60Q202.85 10.70 202.90 10.80Q203.15 11.15 203.25 11.60Q203.35 12.05 203.40 12.45Q203.45 13.25 203.45 14Q203.45 14.75 203.45 15.55L203.45 26.45Q203.45 27.40 203.43 28.43Q203.40 29.45 203.55 30.45Q203.60 30.60 203.63 30.77Q203.65 30.95 203.70 31.10Q203.75 31.25 203.88 31.40Q204 31.55 204.05 31.65L204.25 32Q204.35 32.05 204.45 32.10Q204.55 32.15 204.60 32.20Q204.75 32.25 204.90 32.35Q205.05 32.45 205.20 32.50Q205.35 32.55 205.53 32.58Q205.70 32.60 205.85 32.60Q206.75 32.75 207.65 32.70Q208.55 32.65 209.45 32.70Q210 32.75 210.53 32.80Q211.05 32.85 211.55 32.95Q212.35 33.15 213.07 33.48Q213.80 33.80 214.55 34.05Q215.25 34.20 215.90 34.30Q216.55 34.40 217.20 34.70Q217.30 34.75 217.43 34.80Q217.55 34.85 217.60 34.90Q217.70 35 217.82 35.17Q217.95 35.35 218.05 35.45Q218.10 35.50 218.18 35.58Q218.25 35.65 218.30 35.75Q218.40 35.90 218.40 36.10Q218.40 36.30 218.45 36.45Q218.70 37.15 218.68 37.95Q218.65 38.75 218.65 39.50M215.15 42.05L215.15 41.90Q215.15 41.20 215.15 40.40Q215.15 39.60 214.95 38.85Q214.85 38.35 214.55 37.85Q214.25 37.35 213.80 37.10Q213.30 36.75 212.63 36.65Q211.95 36.55 211.40 36.55Q209.55 36.45 207.72 36.50Q205.90 36.55 204.05 36.50Q203.45 36.50 202.88 36.45Q202.30 36.40 201.70 36.20Q201.60 36.15 201.45 36.10Q201.30 36.05 201.20 36Q201.10 35.95 201 35.83Q200.90 35.70 200.80 35.65Q200.75 35.55 200.63 35.45Q200.50 35.35 200.40 35.25L200.25 34.85Q200.15 34.50 200.10 34.20Q200.05 33.90 200 33.55Q199.95 32.70 199.95 31.88Q199.95 31.05 199.95 30.25L199.95 18.25Q199.95 17.35 199.95 16.42Q199.95 15.50 199.85 14.60Q199.80 14.20 199.70 13.75Q199.60 13.30 199.35 12.95Q198.90 12.30 198.18 12.07Q197.45 11.85 196.65 11.80Q196.15 11.70 195.55 11.73Q194.95 11.75 194.40 11.75L192.95 11.75Q192.10 11.75 191.28 11.75Q190.45 11.75 189.60 11.90Q189.25 11.95 188.80 12.13Q188.35 12.30 188.10 12.60Q187.90 12.80 187.70 13.20Q187.55 13.35 187.45 13.55Q187.40 13.70 187.40 13.88Q187.40 14.05 187.35 14.20Q187.30 14.70 187.28 15.20Q187.25 15.70 187.25 16.25L187.25 38.65Q187.25 39.90 187.22 41.23Q187.20 42.55 187.30 43.85Q187.40 44.55 187.72 45.23Q188.05 45.90 188.75 46.30Q188.85 46.35 189 46.38Q189.15 46.40 189.30 46.50Q189.75 46.60 190.20 46.65Q190.65 46.70 191.15 46.75L210.90 46.75Q211.45 46.75 212.10 46.70Q212.75 46.65 213.30 46.45Q213.50 46.35 213.75 46.23Q214 46.10 214.20 45.95Q214.30 45.85 214.38 45.73Q214.45 45.60 214.50 45.55Q215.05 44.80 215.10 43.88Q215.15 42.95 215.15 42.05ZM249.95 39.50L249.95 39.65Q249.95 40.50 249.93 41.40Q249.90 42.30 249.80 43.20Q249.75 43.60 249.68 44.05Q249.60 44.50 249.40 44.90Q249 45.65 248.33 46.13Q247.65 46.60 247.10 47.15Q246.50 47.70 246.03 48.35Q245.55 49 244.75 49.35Q244.40 49.50 243.93 49.55Q243.45 49.60 243.05 49.60Q242.25 49.65 241.43 49.65Q240.60 49.65 239.75 49.65L222.65 49.65Q222.10 49.65 221.48 49.60Q220.85 49.55 220.30 49.35L219.75 49.05Q219.70 48.95 219.60 48.90Q219.50 48.85 219.40 48.80Q218.80 48.25 218.65 47.42Q218.50 46.60 218.30 45.85Q218.10 45 217.75 44.23Q217.40 43.45 217.10 42.65Q216.80 41.70 216.70 40.75Q216.60 39.80 216.60 38.85Q216.60 37.90 216.60 35.80Q216.60 33.70 216.60 30.98Q216.60 28.25 216.60 25.45Q216.60 22.65 216.60 20.35L216.60 14.20Q216.60 13.35 216.58 12.40Q216.55 11.45 216.70 10.60Q216.75 10.35 216.83 10.07Q216.90 9.80 217 9.60Q217.60 8.45 218.78 8.20Q219.95 7.95 221.05 7.95L224.50 7.95Q225.20 7.95 225.88 7.97Q226.55 8 227.20 8.15Q228.05 8.30 228.78 8.60Q229.50 8.90 230.30 9.15Q231 9.35 231.65 9.45Q232.30 9.55 232.90 9.80Q233.05 9.85 233.20 9.90Q233.35 9.95 233.40 10Q233.50 10.05 233.63 10.17Q233.75 10.30 233.80 10.40Q233.90 10.50 234.03 10.60Q234.15 10.70 234.20 10.80Q234.45 11.15 234.55 11.60Q234.65 12.05 234.70 12.45Q234.75 13.25 234.75 14Q234.75 14.75 234.75 15.55L234.75 26.45Q234.75 27.40 234.73 28.43Q234.70 29.45 234.85 30.45Q234.90 30.60 234.93 30.77Q234.95 30.95 235 31.10Q235.05 31.25 235.18 31.40Q235.30 31.55 235.35 31.65L235.55 32Q235.65 32.05 235.75 32.10Q235.85 32.15 235.90 32.20Q236.05 32.25 236.20 32.35Q236.35 32.45 236.50 32.50Q236.65 32.55 236.83 32.58Q237 32.60 237.15 32.60Q238.05 32.75 238.95 32.70Q239.85 32.65 240.75 32.70Q241.30 32.75 241.83 32.80Q242.35 32.85 242.85 32.95Q243.65 33.15 244.38 33.48Q245.10 33.80 245.85 34.05Q246.55 34.20 247.20 34.30Q247.85 34.40 248.50 34.70Q248.60 34.75 248.73 34.80Q248.85 34.85 248.90 34.90Q249 35 249.13 35.17Q249.25 35.35 249.35 35.45Q249.40 35.50 249.48 35.58Q249.55 35.65 249.60 35.75Q249.70 35.90 249.70 36.10Q249.70 36.30 249.75 36.45Q250 37.15 249.98 37.95Q249.95 38.75 249.95 39.50M246.45 42.05L246.45 41.90Q246.45 41.20 246.45 40.40Q246.45 39.60 246.25 38.85Q246.15 38.35 245.85 37.85Q245.55 37.35 245.10 37.10Q244.60 36.75 243.93 36.65Q243.25 36.55 242.70 36.55Q240.85 36.45 239.03 36.50Q237.20 36.55 235.35 36.50Q234.75 36.50 234.18 36.45Q233.60 36.40 233 36.20Q232.90 36.15 232.75 36.10Q232.60 36.05 232.50 36Q232.40 35.95 232.30 35.83Q232.20 35.70 232.10 35.65Q232.05 35.55 231.93 35.45Q231.80 35.35 231.70 35.25L231.55 34.85Q231.45 34.50 231.40 34.20Q231.35 33.90 231.30 33.55Q231.25 32.70 231.25 31.88Q231.25 31.05 231.25 30.25L231.25 18.25Q231.25 17.35 231.25 16.42Q231.25 15.50 231.15 14.60Q231.10 14.20 231 13.75Q230.90 13.30 230.65 12.95Q230.20 12.30 229.48 12.07Q228.75 11.85 227.95 11.80Q227.45 11.70 226.85 11.73Q226.25 11.75 225.70 11.75L224.25 11.75Q223.40 11.75 222.58 11.75Q221.75 11.75 220.90 11.90Q220.55 11.95 220.10 12.13Q219.65 12.30 219.40 12.60Q219.20 12.80 219 13.20Q218.85 13.35 218.75 13.55Q218.70 13.70 218.70 13.88Q218.70 14.05 218.65 14.20Q218.60 14.70 218.58 15.20Q218.55 15.70 218.55 16.25L218.55 38.65Q218.55 39.90 218.53 41.23Q218.50 42.55 218.60 43.85Q218.70 44.55 219.03 45.23Q219.35 45.90 220.05 46.30Q220.15 46.35 220.30 46.38Q220.45 46.40 220.60 46.50Q221.05 46.60 221.50 46.65Q221.95 46.70 222.45 46.75L242.20 46.75Q242.75 46.75 243.40 46.70Q244.05 46.65 244.60 46.45Q244.80 46.35 245.05 46.23Q245.30 46.10 245.50 45.95Q245.60 45.85 245.68 45.73Q245.75 45.60 245.80 45.55Q246.35 44.80 246.40 43.88Q246.45 42.95 246.45 42.05ZM282.45 44.40Q282.40 44.90 282.38 45.42Q282.35 45.95 282.10 46.35L281.75 46.80Q281.70 46.85 281.60 46.98Q281.50 47.10 281.40 47.20Q281.25 47.35 280.95 47.45Q280.35 47.75 279.70 47.83Q279.05 47.90 278.40 48.15Q278.15 48.20 277.90 48.35Q277.65 48.50 277.40 48.60Q276.90 48.85 276.48 49.15Q276.05 49.45 275.50 49.65Q274.85 49.85 274.13 49.90Q273.40 49.95 272.70 49.95L257 49.95Q255.90 49.95 254.43 49.98Q252.95 50 251.80 49.95Q251.10 49.90 250.35 49.77Q249.60 49.65 249.00 49.15Q248.50 48.70 248.23 48Q247.95 47.30 247.85 46.65Q247.70 45.90 247.68 44.73Q247.65 43.55 247.68 42.38Q247.70 41.20 247.70 40.45L247.70 19.15Q247.70 18.15 247.70 17.17Q247.70 16.20 247.85 15.25Q247.95 14.25 248.28 13.05Q248.60 11.85 249.40 11.20Q249.90 10.80 250.58 10.63Q251.25 10.45 251.85 10.40Q252.85 10.25 253.90 10.15Q254.95 10.05 256 10.05Q256.45 10.05 258 10.05Q259.55 10.05 261.65 10.05Q263.75 10.05 265.83 10.05Q267.90 10.05 269.45 10.05Q271 10.05 271.45 10.05L276.50 10.05Q277.45 10.10 278.38 10.27Q279.30 10.45 280 11.15Q280.25 11.40 280.48 11.75Q280.70 12.10 280.90 12.45Q281.25 13.05 281.50 13.65Q281.75 14.25 281.90 14.95Q282.05 15.75 282.05 16.65Q282.05 17.55 282.05 18.40Q282.05 19 282.03 19.60Q282 20.20 281.80 20.80Q281.75 20.90 281.73 21.07Q281.70 21.25 281.60 21.35Q281.50 21.55 281.25 21.82Q281 22.10 280.80 22.20Q280.60 22.35 280.28 22.45Q279.95 22.55 279.70 22.65Q279.55 22.70 279.40 22.75Q279.25 22.80 279.10 22.90Q279.05 22.95 278.98 22.95Q278.90 22.95 278.85 23Q278.80 23.05 278.90 23.15L279.05 23.70Q279.20 24.35 279.55 24.90Q279.90 25.45 280.15 26.05Q280.40 26.55 280.58 27.07Q280.75 27.60 280.85 28.15Q280.95 28.75 280.95 29.35Q280.95 29.95 280.95 30.55Q280.95 31 280.95 31.48Q280.95 31.95 280.85 32.40Q280.75 33.05 280.43 33.63Q280.10 34.20 279.55 34.50Q279.35 34.65 279.15 34.75Q278.95 34.85 278.80 35.10Q278.60 35.30 278.60 35.35Q278.60 35.40 278.85 35.40Q279.05 35.45 279.25 35.48Q279.45 35.50 279.60 35.60Q280.10 35.85 280.45 36.27Q280.80 36.70 281.05 37.15Q281.45 37.80 281.80 38.58Q282.15 39.35 282.30 40.15Q282.50 41.10 282.48 42.17Q282.45 43.25 282.45 44.40M249.85 17.35L249.85 38.15Q249.85 39.25 249.85 40.73Q249.85 42.20 249.90 43.35Q249.95 43.90 250.05 44.40Q250.15 44.90 250.45 45.40Q250.55 45.45 250.63 45.60Q250.70 45.75 250.75 45.85Q250.85 45.90 250.98 45.98Q251.10 46.05 251.20 46.15Q251.30 46.20 251.43 46.30Q251.55 46.40 251.70 46.45Q252.15 46.65 252.65 46.67Q253.15 46.70 253.65 46.75Q254.40 46.80 255.55 46.80Q256.70 46.80 257.88 46.77Q259.05 46.75 259.80 46.75L273.10 46.75Q273.95 46.75 274.85 46.75Q275.75 46.75 276.55 46.50Q276.95 46.35 277.35 46.13Q277.75 45.90 278 45.55Q278.25 45.20 278.35 44.75Q278.45 44.30 278.50 43.90Q278.60 43.05 278.63 42.10Q278.65 41.15 278.55 40.30Q278.50 39.50 278.25 38.73Q278 37.95 277.30 37.50Q277.20 37.40 277.05 37.38Q276.90 37.35 276.80 37.30Q276.05 37.05 275.25 37.02Q274.45 37 273.65 37.05L266.55 37.05Q265.70 37.05 264.70 37.02Q263.70 37 263 36.50Q262.90 36.40 262.75 36.30Q262.60 36.20 262.50 36.15Q262.45 36 262.43 35.75Q262.40 35.50 262.35 35.35Q262.25 35.15 262.30 35.05Q262.30 35 262.45 34.85Q262.55 34.70 262.70 34.48Q262.85 34.25 263 34.15Q263.20 34.05 263.50 34.05Q264.05 33.90 264.55 33.88Q265.05 33.85 265.55 33.85L272.50 33.85Q273.20 33.85 273.85 33.85Q274.50 33.85 275.15 33.70Q275.30 33.65 275.50 33.60Q275.70 33.55 275.80 33.50Q275.90 33.45 276 33.38Q276.10 33.30 276.15 33.25Q276.25 33.15 276.43 33.02Q276.60 32.90 276.65 32.75Q276.75 32.65 276.75 32.48Q276.75 32.30 276.80 32.20Q276.95 31.80 277 31.40Q277.05 31 277.10 30.60Q277.15 29.70 277.15 28.77Q277.15 27.85 277 26.95Q276.95 26.80 276.95 26.63Q276.95 26.45 276.85 26.30Q276.80 26.15 276.70 26Q276.60 25.85 276.50 25.70Q276.45 25.60 276.40 25.50Q276.35 25.40 276.25 25.35Q276.15 25.25 276 25.20Q275.85 25.15 275.75 25.10Q275.25 24.85 274.73 24.80Q274.20 24.75 273.65 24.70Q272.55 24.65 271 24.67Q269.45 24.70 268.30 24.70L265.25 24.70Q264.85 24.70 264.35 24.67Q263.85 24.65 263.45 24.50Q263.30 24.45 263.13 24.32Q262.95 24.20 262.80 24.10Q262.75 24.05 262.68 24.02Q262.60 24 262.55 23.95Q262.50 23.85 262.48 23.63Q262.45 23.40 262.40 23.30Q262.30 23.10 262.30 22.90Q262.30 22.80 262.45 22.65Q262.55 22.50 262.65 22.27Q262.75 22.05 262.85 22Q262.95 21.90 263.18 21.82Q263.40 21.75 263.55 21.70Q263.90 21.55 264.33 21.52Q264.75 21.50 265.15 21.50L274.20 21.50Q274.75 21.50 275.43 21.42Q276.10 21.35 276.60 21.15Q276.70 21.10 276.83 21Q276.95 20.90 277.05 20.85Q277.15 20.75 277.28 20.70Q277.40 20.65 277.45 20.60Q277.70 20.30 277.85 19.88Q278 19.45 278.05 19.10Q278.20 18.40 278.20 17.65Q278.20 16.90 278.20 16.20Q278.20 15.60 278.18 15Q278.15 14.40 277.95 13.80Q277.95 13.60 277.85 13.30Q277.35 12.35 276.25 11.95Q276.05 11.90 275.85 11.90Q275.65 11.90 275.45 11.85Q274.85 11.75 274.25 11.75Q273.65 11.75 273.05 11.75L256.15 11.75Q255.25 11.75 254.33 11.73Q253.40 11.70 252.55 11.85Q252.15 11.90 251.70 12.02Q251.25 12.15 250.90 12.45Q250.60 12.65 250.40 13.05Q250.20 13.45 250.10 13.80Q249.90 14.60 249.88 15.50Q249.85 16.40 249.85 17.35ZM317.10 20.30Q317.05 20.80 317.00 21.32Q316.95 21.85 316.70 22.25Q316.35 22.85 315.75 23.15Q315.15 23.45 314.45 23.55Q313.50 23.65 312.48 23.63Q311.45 23.60 310.45 23.65Q310.05 23.70 309.55 23.75Q309.05 23.80 308.65 24Q308.55 24.05 308.43 24.20Q308.30 24.35 308.20 24.45Q308.15 24.50 308.05 24.57Q307.95 24.65 307.90 24.75Q307.80 24.95 307.80 25.10Q307.70 25.45 307.63 25.75Q307.55 26.05 307.55 26.40Q307.50 27.25 307.50 28.15Q307.50 29.05 307.50 29.90L307.50 42Q307.50 42.80 307.50 43.65Q307.50 44.50 307.40 45.35Q307.35 45.70 307.25 46.15Q307.15 46.60 306.90 46.95L306.55 47.15Q306.45 47.25 306.30 47.38Q306.15 47.50 306.00 47.60L305.35 47.75Q304.50 47.95 303.58 47.92Q302.65 47.90 301.75 47.90Q300.65 47.90 299.38 47.90Q298.10 47.90 296.95 47.80Q296.40 47.80 295.75 47.55Q295.70 47.55 295.55 47.52Q295.40 47.50 295.35 47.45L295.40 46.95Q295.45 46.90 295.60 46.90Q295.75 46.90 295.80 46.85Q296.35 46.75 296.83 46.75Q297.30 46.75 297.80 46.75Q298.55 46.75 299.68 46.65Q300.80 46.55 301.83 46.20Q302.85 45.85 303.30 45.10Q303.50 44.70 303.55 44.25Q303.60 43.80 303.60 43.40Q303.70 42.55 303.68 41.67Q303.65 40.80 303.65 39.95L303.65 29Q303.65 28.15 303.65 27.27Q303.65 26.40 303.70 25.55Q303.70 25.15 303.75 24.67Q303.80 24.20 304.00 23.85Q304.35 23.15 305.03 22.88Q305.70 22.60 306.40 22.55Q307.40 22.45 308.38 22.47Q309.35 22.50 310.30 22.45Q310.70 22.40 311.15 22.30Q311.60 22.20 311.95 22Q312.50 21.65 312.80 21.05Q313.10 20.45 313.20 19.80Q313.30 18.90 313.30 18Q313.30 17.10 313.30 16.20Q313.30 15.50 313.25 14.82Q313.20 14.15 312.90 13.50Q312.85 13.40 312.83 13.23Q312.80 13.05 312.70 13Q312.35 12.45 311.73 12.17Q311.10 11.90 310.45 11.85Q309.35 11.70 308.08 11.73Q306.80 11.75 305.65 11.75L285.90 11.75Q285.25 11.75 284.55 11.75Q283.85 11.75 283.25 12Q283.10 12.05 282.98 12.13Q282.85 12.20 282.75 12.30Q282.45 12.40 282.30 12.55Q282.25 12.60 282.18 12.75Q282.10 12.90 282.00 13Q281.35 13.85 281.33 14.97Q281.30 16.10 281.30 17.10L281.30 18.45Q281.30 18.95 281.30 19.40Q281.30 19.85 281.20 20.30Q281.20 20.35 281.18 20.55Q281.15 20.75 281.10 20.85Q281.05 20.90 280.90 20.90Q280.75 20.90 280.70 20.90Q280.65 20.90 280.50 20.95Q280.35 21 280.25 20.95Q280.20 20.90 280.10 20.70Q280.00 20.50 279.95 20.45L279.60 20Q279.40 19.40 279.40 18.95Q279.30 18.25 279.30 17.52Q279.30 16.80 279.30 16.10Q279.30 15.35 279.33 14.27Q279.35 13.20 279.63 12.13Q279.90 11.05 280.60 10.30Q280.70 10.20 280.80 10.05Q280.90 9.90 281.05 9.80Q281.90 9 283.00 8.90Q284.10 8.80 285.20 8.80L306.40 8.80Q307.35 8.80 308.28 8.77Q309.20 8.75 310.15 8.85Q310.80 8.90 311.48 9.02Q312.15 9.15 312.70 9.50Q313.45 9.90 313.88 10.57Q314.30 11.25 314.80 11.90Q315.35 12.55 315.93 13.13Q316.50 13.70 316.80 14.50Q317.05 15.05 317.10 15.72Q317.15 16.40 317.15 17L317.10 20.30M285.30 22.50Q286.20 22.50 287.10 22.47Q288.00 22.45 288.90 22.55Q289.05 22.60 289.20 22.57Q289.35 22.55 289.45 22.60L290.10 22.95Q290.20 23 290.30 23.05Q290.40 23.10 290.45 23.15Q290.55 23.25 290.63 23.45Q290.70 23.65 290.75 23.80Q291.05 24.50 291.00 25.40Q290.95 26.30 290.95 27.10L290.95 37.65Q290.95 38.40 290.95 39.48Q290.95 40.55 290.98 41.65Q291.00 42.75 290.95 43.50Q290.95 43.70 290.98 44Q291.00 44.30 290.90 44.50Q290.85 44.60 290.73 44.75Q290.60 44.90 290.50 45Q290.45 45 290.38 45.15Q290.30 45.30 290.25 45.30Q290.20 45.30 290.15 45.23Q290.10 45.15 290.00 45.10Q289.95 45 289.83 44.90Q289.70 44.80 289.60 44.70Q289.40 44.55 289.35 44.35Q289.30 44.15 289.20 43.90Q289.00 43.35 288.98 42.73Q288.95 42.10 288.95 41.50Q288.95 41.05 288.95 39.75Q288.95 38.45 288.95 36.75Q288.95 35.05 288.95 33.35Q288.95 31.65 288.95 30.35Q288.95 29.05 288.95 28.60Q288.95 27.95 288.95 27.32Q288.95 26.70 288.85 26.05Q288.85 25.90 288.85 25.72Q288.85 25.55 288.75 25.40Q288.70 25.25 288.63 25.13Q288.55 25 288.50 24.85L288.20 24.35Q288.15 24.25 287.98 24.17Q287.80 24.10 287.70 24.05L287.25 23.75Q286.75 23.50 286.18 23.45Q285.60 23.40 285.10 23.20Q284.90 23.10 284.75 23Q284.60 22.90 284.45 22.80Q284.40 22.75 284.30 22.72Q284.20 22.70 284.20 22.65Q284.20 22.55 284.33 22.60Q284.45 22.65 284.50 22.60Q284.65 22.55 284.85 22.52Q285.05 22.50 285.30 22.50Z"/></g></g></svg>